<svg id="visual" viewBox="0 0 900 200" width="900" height="200" xmlns="http://www.w3.org/2000/svg" xmlns:xlink="http://www.w3.org/1999/xlink" version="1.1"><path d="M0 85L16.7 75.7C33.3 66.3 66.7 47.7 100 44.5C133.3 41.3 166.7 53.7 200 59.3C233.3 65 266.7 64 300 81.3C333.3 98.7 366.7 134.3 400 143.2C433.3 152 466.7 134 500 135C533.3 136 566.7 156 600 153.2C633.3 150.3 666.7 124.7 700 109.3C733.3 94 766.7 89 800 83.2C833.3 77.3 866.7 70.7 883.3 67.3L900 64L900 0L883.3 0C866.7 0 833.3 0 800 0C766.7 0 733.3 0 700 0C666.7 0 633.3 0 600 0C566.7 0 533.3 0 500 0C466.7 0 433.3 0 400 0C366.7 0 333.3 0 300 0C266.7 0 233.3 0 200 0C166.7 0 133.3 0 100 0C66.7 0 33.3 0 16.7 0L0 0Z" fill="#001122"></path><path d="M0 87L16.7 81.8C33.3 76.7 66.7 66.3 100 55.5C133.3 44.7 166.7 33.3 200 36.5C233.3 39.7 266.7 57.3 300 78.8C333.3 100.3 366.7 125.7 400 116.3C433.3 107 466.7 63 500 51.2C533.3 39.3 566.7 59.7 600 80.8C633.3 102 666.7 124 700 123.7C733.3 123.3 766.7 100.7 800 88.7C833.3 76.7 866.7 75.3 883.3 74.7L900 74L900 0L883.3 0C866.7 0 833.3 0 800 0C766.7 0 733.3 0 700 0C666.7 0 633.3 0 600 0C566.7 0 533.3 0 500 0C466.7 0 433.3 0 400 0C366.7 0 333.3 0 300 0C266.7 0 233.3 0 200 0C166.7 0 133.3 0 100 0C66.7 0 33.3 0 16.7 0L0 0Z" fill="#011d39"></path><path d="M0 80L16.7 69.5C33.3 59 66.7 38 100 39.5C133.3 41 166.7 65 200 78.5C233.3 92 266.7 95 300 90C333.3 85 366.7 72 400 69.8C433.3 67.7 466.7 76.3 500 85.5C533.3 94.7 566.7 104.3 600 102.3C633.3 100.3 666.7 86.7 700 80.7C733.3 74.7 766.7 76.3 800 80.5C833.3 84.7 866.7 91.3 883.3 94.7L900 98L900 0L883.3 0C866.7 0 833.3 0 800 0C766.7 0 733.3 0 700 0C666.7 0 633.3 0 600 0C566.7 0 533.3 0 500 0C466.7 0 433.3 0 400 0C366.7 0 333.3 0 300 0C266.7 0 233.3 0 200 0C166.7 0 133.3 0 100 0C66.7 0 33.3 0 16.7 0L0 0Z" fill="#052851"></path><path d="M0 46L16.7 44C33.3 42 66.7 38 100 40.8C133.3 43.7 166.7 53.3 200 51.5C233.3 49.7 266.7 36.3 300 28C333.3 19.7 366.7 16.3 400 21.3C433.3 26.3 466.7 39.7 500 43.3C533.3 47 566.7 41 600 35.3C633.3 29.7 666.7 24.3 700 19C733.3 13.7 766.7 8.3 800 16.2C833.3 24 866.7 45 883.3 55.5L900 66L900 0L883.3 0C866.7 0 833.3 0 800 0C766.7 0 733.3 0 700 0C666.7 0 633.3 0 600 0C566.7 0 533.3 0 500 0C466.7 0 433.3 0 400 0C366.7 0 333.3 0 300 0C266.7 0 233.3 0 200 0C166.7 0 133.3 0 100 0C66.7 0 33.3 0 16.7 0L0 0Z" fill="#163369"></path></svg>